<svg xmlns="http://www.w3.org/2000/svg" width="68" height="56" fill="none"><g fill="#303030" clip-path="url(#a)"><path d="m38.876 16.87-1.277-1a.958.958 0 0 0-1.364.14l-17.67 20.82.273.31L23.214 33a.679.679 0 0 1-.34-.313.706.706 0 0 1 .17-.865.661.661 0 0 1 .433-.152c.142 0 .28.047.394.133a.68.68 0 0 1 .24.347l5.77-5.49a.49.49 0 0 1 .623 0l.292.22a.478.478 0 0 0 .653-.08l7.544-8.68a.835.835 0 0 0 .22-.652.846.846 0 0 0-.337-.598Z"/><path d="M47.179 22.73a38.979 38.979 0 0 1-12.786 6.15A67.708 67.708 0 0 1 20.485 31c.095.71.265 1.408.507 2.08 2.651 2.46 22.61-1.74 26.509-6.6.828-1.01-.322-3.75-.322-3.75ZM23.477 33a.651.651 0 0 1-.368-.115.676.676 0 0 1-.244-.305.698.698 0 0 1 .144-.74.648.648 0 0 1 .722-.147.667.667 0 0 1 .297.25.693.693 0 0 1 .112.377.684.684 0 0 1-.191.484.652.652 0 0 1-.472.196ZM4.619 21.29l.156-.69 2.534.59c.209.396.338.831.38 1.28.048.475.018.955-.088 1.42a3.799 3.799 0 0 1-.838 1.74 3.335 3.335 0 0 1-1.501 1 3.47 3.47 0 0 1-1.842.07 3.392 3.392 0 0 1-1.628-.88 3.316 3.316 0 0 1-.925-1.57 3.875 3.875 0 0 1 0-2c.104-.49.292-.957.555-1.38.249-.385.583-.704.975-.93l.35.55a2.82 2.82 0 0 0-.846.828 2.902 2.902 0 0 0-.44 1.112c-.12.517-.11 1.058.03 1.57.13.486.39.926.75 1.27.37.367.832.62 1.335.73a2.69 2.69 0 0 0 1.491 0 2.858 2.858 0 0 0 1.218-.81c.341-.403.576-.888.682-1.41.16-.633.12-1.302-.116-1.91l-2.232-.58ZM10.136 15l-2.271 3.11.974 1.79-.448.62-3.606-6.75.42-.59 7.338 1.62-.458.62-1.95-.42Zm-.644-.16-3.898-.9 1.95 3.59 1.948-2.69ZM9.492 8.55l.585-.45 3.713 5.1 3.06-2.35.37.51-3.635 2.79-4.093-5.6ZM15.632 4.38l.653-.3 2.573 5.78 3.479-1.62.253.58-4.132 1.93-2.826-6.37ZM28.477 6.68l.146.63-4.698 1.13-1.559-6.82L26.927.53l.137.62-3.899.93.556 2.42 3.43-.83.147.62-3.44.82.584 2.53 4.035-.96ZM35.172 6.93l-1.628-2.2c-.182.01-.364.01-.546 0l-1.832.06.068 2.22h-.72l-.225-7L32.881 0a3.021 3.021 0 0 1 2.066.57c.253.209.457.474.595.776.139.301.209.63.205.964.028.494-.098.985-.36 1.4-.281.399-.677.696-1.131.85L35.96 6.9l-.79.03Zm-.682-3.29c.175-.165.31-.368.397-.596.086-.227.12-.471.1-.714a1.645 1.645 0 0 0-.144-.708 1.605 1.605 0 0 0-.432-.572 2.323 2.323 0 0 0-1.53-.41L31.03.71l.117 3.5 1.812-.06a2.3 2.3 0 0 0 1.53-.51ZM40.328 5.07l-.351 2.39-.712-.11.36-2.35-2.017-5 .76.12 1.726 4.26L43.017.85 43.7 1l-3.371 4.07ZM49.966 4.65l.848 1.13-.37.3-.848-1.16-.536 1.31-.41-.18.546-1.31-1.403.19v-.48l1.384-.16-.858-1.13.38-.3.75 1.14.527-1.32.42.18-.498 1.34 1.403-.2v.49l-1.335.16ZM53.22 12.71a2.815 2.815 0 0 1-.418-1.21l.575-.26c.043.396.17.778.37 1.12.218.383.502.722.838 1 .348.341.79.562 1.267.63.172.016.346-.01.505-.079.16-.067.301-.174.411-.311a.907.907 0 0 0 .224-.68 1.87 1.87 0 0 0-.233-.69 10.476 10.476 0 0 0-.595-.89 9.12 9.12 0 0 1-.702-1.1 2.038 2.038 0 0 1-.253-.94c0-.37.135-.728.38-1 .212-.264.493-.461.809-.57a1.902 1.902 0 0 1 1.082 0c.455.153.876.398 1.237.72.3.256.566.552.79.88.207.304.362.642.458 1l-.556.3a3.564 3.564 0 0 0-.428-.94 3.57 3.57 0 0 0-.653-.69 2.14 2.14 0 0 0-1.258-.61 1.029 1.029 0 0 0-.508.086c-.16.072-.3.183-.408.324a.865.865 0 0 0-.224.68c.023.252.103.495.234.71.136.23.331.53.594.89.261.34.496.702.702 1.08.162.286.253.61.263.94.001.37-.135.728-.38 1a1.733 1.733 0 0 1-.818.57c-.353.11-.73.11-1.082 0a3.591 3.591 0 0 1-1.248-.72 4.53 4.53 0 0 1-.974-1.24ZM63.026 14.17l-1.374-2 .506-.37 3.168 4.64-.507.37-1.374-2-5.087 3.65-.41-.61 5.078-3.68ZM60.843 22.39a3.33 3.33 0 0 1 .974-1.56 3.427 3.427 0 0 1 1.599-.83 3.441 3.441 0 0 1 1.832.07c.573.195 1.087.54 1.49 1a3.79 3.79 0 0 1 .83 1.74 3.907 3.907 0 0 1 0 1.93 3.431 3.431 0 0 1-.975 1.56 3.584 3.584 0 0 1-1.64.86c-.61.137-1.243.11-1.84-.08a3.26 3.26 0 0 1-1.49-1 3.8 3.8 0 0 1-.83-1.73 3.948 3.948 0 0 1 .05-1.96Zm1.276 3.18c.326.38.747.66 1.218.81.486.145 1 .162 1.493.05a2.994 2.994 0 0 0 1.334-.69c.36-.34.625-.77.77-1.25.136-.506.149-1.038.038-1.55a3.253 3.253 0 0 0-.672-1.39 2.768 2.768 0 0 0-1.257-.81 2.852 2.852 0 0 0-1.5 0 2.666 2.666 0 0 0-1.326.69 2.8 2.8 0 0 0-.77 1.26 3.076 3.076 0 0 0 0 1.55c.107.496.338.955.672 1.33ZM60.101 34l2.524-1c0-.18.059-.36.108-.55l.477-1.81-2.066-.55.185-.71 6.588 1.81-.662 2.53a3.182 3.182 0 0 1-1.13 1.86 2.054 2.054 0 0 1-1.852.28 2.108 2.108 0 0 1-1.195-.754 2.205 2.205 0 0 1-.472-1.356l-2.69 1 .185-.75Zm3.265.28c.114.212.27.4.455.549a1.71 1.71 0 0 0 1.99.121c.431-.354.725-.854.83-1.41l.467-1.8-3.303-.91-.468 1.8c-.18.536-.17 1.12.029 1.65ZM56.602 40.44l-.496-.39 2.923-3.95 5.438 4.23-2.826 3.83-.497-.39 2.388-3.23-1.95-1.51-2.134 2.89-.487-.38 2.183-2.89-2.017-1.57-2.525 3.36ZM54.322 48.41l-1.393.08v-.48l1.393-.01-.75-1.19.38-.25.74 1.2.605-1.34.419.23-.663 1.26 1.394-.08v.49h-1.413l.75 1.19-.38.25-.74-1.2-.644 1.3-.41-.24.712-1.21ZM41.653 47.61l1.179.67c.198-.39.474-.732.81-1.004a3.002 3.002 0 0 1 1.14-.576 3.006 3.006 0 0 1 1.198-.13c.35.028.687.152.975.36.26.2.45.48.545.8.118.395.097.82-.058 1.2a5 5 0 0 1-.975 1.39c.322.177.62.396.887.65.184.195.32.431.4.69a1.365 1.365 0 0 1-.254 1.17c-.26.385-.648.659-1.091.77-.39.152-.82.152-1.209 0a1.22 1.22 0 0 1-.448-.34 1.262 1.262 0 0 1-.253-.51 1.392 1.392 0 0 1 .068-1c.224-.455.516-.87.867-1.23l-2.349-1.34c-.09.471-.109.953-.058 1.43h-.595a4.896 4.896 0 0 1 .195-1.74l-1.228-.7.254-.56Zm1.696 1 2.582 1.47c.339-.332.619-.72.829-1.15a1.3 1.3 0 0 0 0-.9 1.088 1.088 0 0 0-.25-.463 1.05 1.05 0 0 0-.433-.287 1.903 1.903 0 0 0-1.247 0c-.33.09-.638.252-.9.477a2.393 2.393 0 0 0-.62.823l.039.03Zm3.664 4a.915.915 0 0 0 .078-.74 1.236 1.236 0 0 0-.312-.52c-.248-.215-.52-.4-.809-.55-.295.3-.554.636-.77 1a1.023 1.023 0 0 0-.078.74.847.847 0 0 0 .43.53c.247.096.52.096.769 0a1.16 1.16 0 0 0 .653-.47l.039.01ZM29.773 55.32l.136-7h.692l-.107 5.6 2.767-4.66h.341L36.195 54l.097-5.57h.692l-.126 7h-.595l-2.865-5.23-3.031 5.13-.595-.01ZM26.381 48c.446.436.765.99.922 1.601a3.496 3.496 0 0 1-.035 1.859 3.582 3.582 0 0 1-.925 1.63 3.252 3.252 0 0 1-1.57.88 3.689 3.689 0 0 1-1.89-.06 3.638 3.638 0 0 1-1.637-.91 3.38 3.38 0 0 1-.907-1.58 3.783 3.783 0 0 1 .032-1.893 3.71 3.71 0 0 1 .943-1.627 3.343 3.343 0 0 1 1.54-.9 3.659 3.659 0 0 1 1.88.06c.62.161 1.188.485 1.647.94Zm-3.323-.35a2.585 2.585 0 0 0-1.257.72 2.909 2.909 0 0 0-.74 1.33 2.92 2.92 0 0 0 0 1.53c.114.487.36.93.71 1.28.368.368.82.633 1.316.77.496.13 1.015.13 1.511 0a2.75 2.75 0 0 0 1.267-.72 2.96 2.96 0 0 0 .74-1.33 2.953 2.953 0 0 0 0-1.54 2.827 2.827 0 0 0-.72-1.28 2.904 2.904 0 0 0-1.326-.76 2.748 2.748 0 0 0-1.5 0ZM15.68 43l.264 2.75c.167.073.33.157.487.25l1.589.94L19.092 45l.633.37-3.41 6.03-2.223-1.31a3.148 3.148 0 0 1-1.462-1.6 2.255 2.255 0 0 1 .215-1.9c.226-.438.586-.79 1.023-1a2.208 2.208 0 0 1 1.404-.11l-.283-2.94.692.46Zm-1.11 3.16a1.738 1.738 0 0 0-.632.31c-.188.147-.346.33-.463.54a1.832 1.832 0 0 0-.162 1.4c.228.518.624.938 1.12 1.19l1.57.93 1.705-3-1.569-.93a2.366 2.366 0 0 0-1.57-.49v.05ZM9.911 38.31l.439-.45 3.362 3.55-4.873 4.88-3.245-3.44.448-.45L8.8 45.31l1.667-1.73L8.05 41l.467-.46 2.466 2.6 1.813-1.81-2.885-3.02ZM2.67 34.38 2.903 33l.459.07-.264 1.42L4.395 34l.156.44-1.316.46 1.082.94-.312.36-1.043-1-.244 1.42-.467-.09.272-1.42-1.306.48-.146-.39 1.306-.47-1.082-.93.322-.36 1.053.94Z"/></g><defs><clipPath id="a"><path fill="#fff" d="M.72 0H67.9v55.46H.72z"/></clipPath></defs></svg>